# File created by Blade
# Date/Time:  Thu Jan 22 16:10:14 2015
# Frame Rate: 120.000 fps
#------------------------------------------------------
:FULLY-SPECIFIED
:DEGREES
1932
root 11.898517 25.273598 -1.799594 33.676525 24.481869 -18.206690
RightUpLeg -26.421858 -41.448994 -7.473296
RightLeg -6.968914 -0.000000 0.000000
RightFoot 4.707763 -26.522489 44.609666
RightToeBase 13.969119 -0.000000 -0.000000
LeftUpLeg -104.599528 14.385472 5.538683
LeftLeg 101.687395 -0.000000 -0.000000
LeftFoot -42.986747 12.740927 -20.198110
LeftToeBase 7.981484 -0.000000 -0.000000
Spine 48.004509 -11.458483 -55.214419
RightShoulder -5.445157 -18.738732 -30.837004
RightArm -17.060453 11.204227 50.205302
RightForeArm 57.973654 -0.000000 9.402583
RightHand 8.280031 -0.000000 -28.974847
RightHandThumb1 -24.326973 -0.000000 -32.862282
LeftShoulder -9.728170 24.789790 21.870923
LeftArm 54.574574 -52.122991 -69.846876
LeftForeArm 20.528769 -0.000000 15.935377
LeftHand -27.054502 -0.000000 93.689886
LeftHandThumb1 -26.253704 0.000000 33.147579
Head -29.653693 -12.020989 13.660187
1933
root 11.894756 25.282874 -1.789286 33.638487 24.482541 -18.268607
RightUpLeg -26.422330 -41.422217 -7.396975
RightLeg -6.966400 -0.000000 0.000000
RightFoot 4.693570 -26.519268 44.572882
RightToeBase 13.903826 -0.000000 -0.000000
LeftUpLeg -104.556418 14.440120 5.595465
LeftLeg 101.670055 -0.000000 -0.000000
LeftFoot -42.983946 12.728415 -20.191830
LeftToeBase 7.989114 -0.000000 -0.000000
Spine 48.004229 -11.475802 -55.289584
RightShoulder -5.417693 -18.713381 -30.834401
RightArm -17.149073 11.342987 50.213735
RightForeArm 58.224090 -0.000000 9.388459
RightHand 8.276724 -0.000000 -28.946823
RightHandThumb1 -24.326973 -0.000000 -32.862282
LeftShoulder -9.759043 24.827323 21.921262
LeftArm 54.410389 -52.166393 -69.763549
LeftForeArm 20.492457 -0.000000 15.960709
LeftHand -27.073908 -0.000000 93.755162
LeftHandThumb1 -26.253704 0.000000 33.147579
Head -29.526586 -12.068330 13.520163
1934
root 11.890271 25.291074 -1.781166 33.593813 24.487677 -18.328034
RightUpLeg -26.403099 -41.372422 -7.346410
RightLeg -6.954431 -0.000000 0.000000
RightFoot 4.796877 -26.500424 44.359797
RightToeBase 13.579227 -0.000000 -0.000000
LeftUpLeg -104.511651 14.485704 5.656987
LeftLeg 101.654652 -0.000000 -0.000000
LeftFoot -42.977745 12.715772 -20.185917
LeftToeBase 7.931569 -0.000000 -0.000000
Spine 48.026821 -11.501688 -55.342653
RightShoulder -5.442609 -18.706790 -30.876988
RightArm -17.150478 11.464270 50.294477
RightForeArm 58.450564 -0.000000 9.402068
RightHand 8.307193 -0.000000 -29.002827
RightHandThumb1 -24.326973 -0.000000 -32.862282
LeftShoulder -9.804341 24.859345 21.927794
LeftArm 54.237222 -52.195930 -69.624048
LeftForeArm 20.429255 -0.000000 15.962275
LeftHand -27.072786 0.000000 93.768897
LeftHandThumb1 -26.253704 0.000000 33.147579
Head -29.548163 -11.897531 13.351042
1935
root 11.887695 25.300323 -1.773274 33.579620 24.492154 -18.374807
RightUpLeg -26.406622 -41.322378 -7.291664
RightLeg -6.951629 -0.000000 0.000000
RightFoot 4.807774 -26.530610 44.262093
RightToeBase 13.735644 -0.000000 -0.000000
LeftUpLeg -104.486557 14.520003 5.706857
LeftLeg 101.632603 -0.000000 -0.000000
LeftFoot -42.980361 12.715247 -20.191727
LeftToeBase 7.795563 -0.000000 -0.000000
Spine 48.027798 -11.532989 -55.403558
RightShoulder -5.448601 -18.713006 -30.896414
RightArm -17.112155 11.517422 50.396532
RightForeArm 58.601361 -0.000000 9.384707
RightHand 8.249335 -0.000000 -28.916114
RightHandThumb1 -24.326973 -0.000000 -32.862282
LeftShoulder -9.824664 24.881419 21.956387
LeftArm 54.085573 -52.248153 -69.551427
LeftForeArm 20.367119 -0.000000 16.004517
LeftHand -26.990794 -0.000000 93.787258
LeftHandThumb1 -26.253704 0.000000 33.147579
Head -29.512412 -11.866864 13.242435
1936
root 11.884363 25.308649 -1.766007 33.563498 24.506407 -18.440187
RightUpLeg -26.431225 -41.303128 -7.193043
RightLeg -6.954490 -0.000000 0.000000
RightFoot 4.770064 -26.519932 44.272275
RightToeBase 13.904658 -0.000000 -0.000000
LeftUpLeg -104.478799 14.560108 5.769336
LeftLeg 101.615332 -0.000000 -0.000000
LeftFoot -43.019548 12.634129 -20.270328
LeftToeBase 8.113182 -0.000000 -0.000000
Spine 48.026423 -11.570564 -55.424860
RightShoulder -5.437121 -18.712281 -30.923078
RightArm -17.084546 11.588545 50.496491
RightForeArm 58.753548 -0.000000 9.371126
RightHand 8.244432 -0.000000 -28.772679
RightHandThumb1 -24.326973 -0.000000 -32.862282
LeftShoulder -9.829386 24.915924 21.973113
LeftArm 53.942863 -52.288813 -69.470559
LeftForeArm 20.552711 -0.000000 15.976996
LeftHand -26.944561 -0.000000 93.822519
LeftHandThumb1 -26.253704 0.000000 33.147579
Head -29.479254 -11.796781 13.086919
1937
root 11.882095 25.316313 -1.759647 33.559381 24.521703 -18.489446
RightUpLeg -26.458650 -41.272995 -7.109925
RightLeg -6.954347 -0.000000 0.000000
RightFoot 4.844075 -26.566534 44.093090
RightToeBase 13.750774 -0.000000 -0.000000
LeftUpLeg -104.472577 14.584561 5.815627
LeftLeg 101.597472 -0.000000 -0.000000
LeftFoot -42.982597 12.680750 -20.220439
LeftToeBase 7.949263 -0.000000 -0.000000
Spine 48.031402 -11.622039 -55.468506
RightShoulder -5.420326 -18.706033 -30.923609
RightArm -17.044449 11.578698 50.605348
RightForeArm 58.891994 -0.000000 9.416980
RightHand 8.179217 -0.000000 -28.426700
RightHandThumb1 -24.326973 -0.000000 -32.862282
LeftShoulder -9.848334 24.910482 22.002121
LeftArm 53.777216 -52.355659 -69.430556
LeftForeArm 20.342792 -0.000000 16.112538
LeftHand -26.980314 -0.000000 93.880838
LeftHandThumb1 -26.253704 0.000000 33.147579
Head -29.439451 -11.733044 12.948212
1938
root 11.877989 25.323394 -1.753000 33.559852 24.538524 -18.549672
RightUpLeg -26.487631 -41.240617 -7.019513
RightLeg -6.956368 -0.000000 0.000000
RightFoot 4.847728 -26.573628 44.047617
RightToeBase 13.877828 -0.000000 -0.000000
LeftUpLeg -104.481110 14.619720 5.872420
LeftLeg 101.576143 -0.000000 -0.000000
LeftFoot -42.984916 12.688957 -20.168759
LeftToeBase 7.938283 -0.000000 -0.000000
Spine 48.012634 -11.666808 -55.486364
RightShoulder -5.396210 -18.704286 -30.910105
RightArm -16.998272 11.565481 50.698368
RightForeArm 59.007359 -0.000000 9.463006
RightHand 8.072954 -0.000000 -28.255275
RightHandThumb1 -24.326973 -0.000000 -32.862282
LeftShoulder -9.853044 24.953603 22.040619
LeftArm 53.693366 -52.414434 -69.460624
LeftForeArm 20.323633 0.000000 16.194001
LeftHand -26.981534 -0.000000 93.901043
LeftHandThumb1 -26.253704 0.000000 33.147579
Head -29.376997 -11.620972 12.829682
1939
root 11.876770 25.328182 -1.746892 33.560983 24.552764 -18.589470
RightUpLeg -26.490640 -41.198275 -6.980057
RightLeg -6.956432 -0.000000 0.000000
RightFoot 4.796809 -26.604915 44.068324
RightToeBase 14.001306 -0.000000 -0.000000
LeftUpLeg -104.489922 14.635542 5.914043
LeftLeg 101.580819 -0.000000 -0.000000
LeftFoot -42.980114 12.680672 -20.240267
LeftToeBase 7.736833 -0.000000 -0.000000
Spine 48.006373 -11.706746 -55.512346
RightShoulder -5.391855 -18.709253 -30.911801
RightArm -16.886797 11.703743 50.791888
RightForeArm 58.937312 -0.000000 9.442052
RightHand 8.047254 -0.000000 -28.355968
RightHandThumb1 -24.326973 -0.000000 -32.862282
LeftShoulder -9.839709 24.981836 22.077441
LeftArm 53.557561 -52.467879 -69.432405
LeftForeArm 20.300998 0.000000 16.269257
LeftHand -27.009822 -0.000000 93.965203
LeftHandThumb1 -26.253704 0.000000 33.147579
Head -29.318905 -11.572280 12.725197
